<svg xmlns="http://www.w3.org/2000/svg" viewBox="0 0 477.75 390.69">
<g>
    <path d="M95.7,357.41l-7.21,3.26-6.12,3.09c-7.31,3.7-13.67,2.99-15.77-2.06-2.71-6.52.73-16.94,5.22-26.16l3.2-6.57,3.2-6.57c2.84-5.83,3.24-9.59,5.07-13.08l3.29-6.24,1.5-6.69,3.29-6.28,3.06-6.15,3.09-6.15,3.02-6.33,7.63-8.11,1.45-7.44c.42-2.15,5.24-3.58,5.19-7.27-.08-5.8,4.21-6.94,7.38-13.95l2.98-6.59,4.28-4.33c2.43-2.46,8.8-18.92,17.33-23.05l6.22-3.02c4.94-2.39,7.64-5.25,12.87-7.93l6.46-3.31,6.16-3.07,6.16-3.09,6.35-3.04,8.04-7.39c2.37-2.18,7.59-1.33,10.22.01l6.17,3.15c6.59,3.36,20.78,2.22,28.8,8.1l7.42,5.43c1.78,1.3,5.72,1.25,7.25,5.19,3.46,8.95-1.84,18.6-9.57,22.42l-6.25,3.09-6.18,3.01c-17.85,8.7-27.4,7.55-26.7,7.22l-5.99,2.8-7.14,2.37c-9.88,3.28-22.08,3.57-31.81.03l-6.79-2.47c-4.51-1.64-7.6-6.41-9.91-7.85-4.28-2.64-6.48.72-7.03,3.85-1.14,6.52-10.65,15.34-13.08,20.32l-3.24,6.66-3.08,6.14-3.07,6.15-3.08,6.15-3.08,6.15-3.08,6.15-3.08,6.15-3.08,6.15-3.08,6.15-3.07,6.15-3.32,6.2-1.48,7.16c-.5,2.43-5.22,3.72-5.18,7.2.06,6.28-4.86,6.67-6.84,15.3-1.02,4.45,2.32,7.56,5.81,5.06,2.9-2.08,5.19-4.36,9.17-6.29l5.87-2.86,6.18-3.08,6.15-3.08,6.15-3.08,6.15-3.08,6.15-3.08,6.15-3.08,6.14-3.07,6.11-3.06c14.85-7.43,34.62-9.79,35.01-17.82.32-6.66-1.86-14.36,1.04-20.16l3.03-6.06,3.1-6.36c3.17-6.51,11.71-9.31,16.27-6.23,5.57,3.76,11.2,3.32,15.96-1.45,3.85-3.86,2.15-6.78,10.73-10.66,3.65-1.65,8.22.64,11.55-1.07l5.84-3c4.94-2.54,9.84-3.23,9.69-9.28,0,.09,7.78-19.01,8.22-19.32,5.57-3.94,2.4-8.64,5.95-15.72l3.08-6.14,3.07-6.14,3.08-6.15,3.07-6.17,3.28-6.32,1.53-9.69,3.28-6.32,3.07-6.16,3.07-6.15,3.06-6.11c4.11-8.22,6.82-20.22,10.42-26.99l3.29-6.2,1.59-6.9c1.56-6.78,4.35-13.49,4.53-14.74l1.43-9.94c.55-3.8,4.62-4.16,6.68-3.75,2.39.47,4.23,2.25,4.74,4.69-.46-2.2-4.02,28.52-8.03,36.12l-3.31,6.27-1.49,6.69-3.3,6.27-3.04,6.11c-4.21,8.46-8.25,20.89-7.31,21.88,2.09,2.19,6.25-1.18,7.92-1.97l6.85-3.25,6.5-5.02c3.52-2.72,5.78-4.69,9.57-6.48l6.26-2.96,6.14-3.11,6.14-3.07,6.15-3.08,6.17-3.08,6.29-3.12c3.1-1.54,10.04-1.88,12.85-.12,2.12,1.33.73,4.97-.77,6.37l-14.46,13.53-6.24,3.14-7.08,1.56-11.16,10.77-7.35,1.54-14.3,13.75-6.25,2.91c-2.7,1.26-.7,4.47.09,4.25,4.7-1.51,6.9,2.16,8.33,2.18l53.99.8c2.94.04,7.43,4.24,9.2,9.12l-15.36.08-5.7,3.02-48.45-.7c2.69.04-9.55-3.96-18.22-8.16-6.68-3.24-15,11.93-14.37,11.3l-4.33,4.34-3.06,6.71-3.28,6.26-1.5,6.69-3.29,6.23c-1.43,2.72-.99,4.84-2.25,7.47l-2.82,5.88c-7.22,15.05.47,33.47,4.07,30.65,3.71-2.9,7.54-2.49,12.36-4.93l6.04-3.05c3.15-1.59,8.18.71,11.36-.97l5.75-3.04,12.92-.1,5.52-2.95,12.94-.13,5.58-2.96,25.12-.1,5.75-2.98,39.24.61c2.57.04,3.44,3.25,3.74,4.4,1.38,5.36-9.23,4.13-8.74,10.59.32,4.24-3.08,8.99-6.54,6.2l-7.06-5.69-38.94-.71-5.87,2.96-12.87.08-5.79,3.07c-3.01,1.59-8.34-.79-11.29.98-2.18,1.31-10.92,3.78-14.65,4.37l-9.82,1.57c-3.98.64-11.84,4.14-14.8,4.6l-10.1,1.57-1.85,7.49c-.89,3.6-3.13,7.54,0,11.4,2.48,3.05-5.66,36.74-13.53,52.25l-3.2,6.3c-2.81,5.53-8,12.92-7.79,12.71l-12.65,12.86-6.14,2.85-6.1,3.27c-1.82.98-5.61,1.64-7.26,0l-12.39-12.37-1.61-7.26c-1.16-5.24-4.82-14.54-1.26-21.48,5.78-11.26,8.95-28.38,13.49-32.79l16.15-15.64c-1.43-3.15-7.38-2.99-13.4.19l-6.21,3.29-6.8,1.52c-3.66.82-21.56,7.72-26.99,10.57l-6.24,3.28-6.69,1.5-6.28,3.29-6.15,3.06-6.11,3.06c-3.58,1.79-7.44,2.36-13.34,5.23l-8.76,4.27c-2.06,1-3.62,3.31-7.1,5.07l-5.87,2.98-6.13,3.05-6.21,3.08-6.95,3.81ZM210.41,216.32c4.14-1.73,7.94-1.45,11.44-1.31,1.58-3.11,4.19-3.68,6.99-2.59l8.78-4.69c1.47-.78,2.94-5.06,7.14-4.46,2.2-.68,2.86-3.04,2.26-4.69-3.57-9.75-14.21-6.45-19.05-10.85-2.24.17-4.56-.37-6.11-3.15h-25.98c-1.55,2.77-3.84,3.33-6.15,3.13-1.67,2.78-3.82,3.24-6.16,3.09-1.67,2.76-3.82,3.23-6.15,3.08-1.69,2.73-3.8,3.25-6.3,3.09l-9.56,9.6-.07,11.48c3-.38,5.05.29,6.71,3h25.96c1.72-2.78,3.98-3.41,7.06-2.96,3.02.63,6.1.84,9.2-1.78ZM243.27,278.86l6.61-6.04c.74-3.77.82-6.89.16-11.27l-14.25.21-5.99,6.59c-3.53,3.89-.12,10.44,5.25,11.33,2.87.47,6.47.77,8.21-.82ZM213.41,284.66c3.29-1.38,3.17-4.99,2.79-6.12-.98-2.89-6.4-7.68-8.94-8.08-7.71-1.24-6.22,6.82-10.56,11.48-4.52,4.85,8.93,5.99,16.71,2.73ZM247.04,355.8c-.14-2.31.32-4.47,3.08-6.14-.15-2.34.32-4.49,3.08-6.15-.15-2.34.32-4.49,3.07-6.15-.16-2.35.39-4.5,2.98-6.13l.77-7.56c4.92-3.65.44-10.38,5.38-13.98v-13.72c-2.62-1.75-3.25-3.68-2.74-6.75-3.1.34-4.06,1.85-5.3,3.57l-23.22,23.05c-1.71,1.69-2.73,3.47-2.44,6.58-3.15,1.47-5.12,3.39-5.92,6.61l-3.03,6.16-3.55,6.18c1.22,2.83.41,5.4-2.38,6.87v19.87c2.65,1.71,3.16,3.83,3.42,6.16,2.06,4.33,6.7,4.63,9.51,1.84l14.11-14.05c-.04-2.44.45-4.54,3.17-6.26Z"/>
    <path d="M53.73,256.94c-1.56,2.81-9.36,7.35-13.56,5.63-3.94-1.61-5.63-2.5-5.4-7.51.13-2.89,1.99-4.67,2.57-7.28l1.53-6.88c.53-2.36,3.01-8.33,5.27-13.08l3.3-6.92c2.73-5.73,3.31-9.54,5.1-13.12l3.06-6.11,3.07-6.14,3.08-6.15,3.07-6.16,3.32-6.46c2.64-5.15,5.46-7.88,7.89-12.8l3.03-6.14,3.07-6.16,3.08-6.15,3.07-6.14,3.08-6.13,3.16-6.52c1.19-2.47,3.45-3.77,5.21-7.24l2.89-5.68c1.59-3.13,4.92-4.84,5.44-7.19l1.58-7.24,3.24-6.33,7.37-8.09,3.02-6.32,3.31-6.42c.57-1.11.78-4.19,3.01-5.58,5.51-3.44,5.95-12.35,7.14-14.74l2.86-5.74c1.64-3.29,3.98-4.79,5.12-7.14l3.2-6.6c2.6-5.36,5.69-7.86,8.17-13.13l2.9-6.16,10.42-11.27c2.45-2.65,6.73-2.29,7.27.34,1.87,9.22-17.26,24.79-15.69,31.86.67,3.01,5.36,3.66,7.41.5,1.39-2.14,3.29-5.88,6.23-6.25l13.47-1.68,7.83-7.51c10.28-1.6,21.67-1.25,32.07-.2,1.55.16,3.94,3.73,4.84,4.55,3.01,2.77.84,6.38-.9,10.13l-3.85,8.3-60,60.15c-1.49,1.5-3.39,2.22-3.44,5.37l21.25-.15c2.18-.01,3.83-2.05,4.87-2.53,1.6-.74,10.04,2.03,13.56,9.02l2.89,5.73c1.63,3.24-.77,5.09-1.96,7.51l-3.03,6.16c-1.39,2.83-3.85,4.61-5.14,7.36l-2.81,5.99-25.06,24.78c-1.34,1.32-5.76.99-7.36,4.88-.78,1.89-4.69,1.74-5.87,2.86l-4.67,4.43c-1.4,1.33-10.86,5.33-13.56,7.8l-8.38,7.67c-1.01.92-4.89.69-5.9,3.04-.29.67-10.05,8.13-16.78,11.28l-6.07,2.85-11.16,10.13-9.69,6.51-15.81,1.83c-2.2.25-3.26,9.83-6.56,15.77l-3.67,6.62ZM89.22,208.66c2.41.38,4.91-.73,7.29-2.49l7.17-5.31c2.53-1.87,4.84-3.82,7.46-5.14l5.98-3.01c3.67-1.85,6.34-3.47,9.54-6.44l7.49-6.92c3.2-2.96,5.88-4.65,9.53-6.43l5.93-2.9c3.26-1.6,11.2-7.7,15.14-12.58,2.86-3.53,11.25-4.94,16.92-14.23s13.98-16.17,13-21.59c-.4-2.24-2.23-4.32-4.7-4.72-1.72-.28-4.7,2.41-7.08,2.5l-12.73.47-5.81,2.79c-9.56,4.59-22.03,5.86-25.99-1.68-1.62-3.09-2.27-5.73.39-8.34l29.59-29.06,5.96-2.96,44.63-44.85c1.39-1.4,1.36-6.37-.16-7.39-3.05-2.05-12.29-.35-17.72,2.25l-5.9,2.83c-2.66,1.27-4.75.83-7.48,2.25l-6.4,3.31c-1.09.57-4.07.75-5.57,3.01-3.21,4.8-11.74,5.96-13.52,7.76l-21.66,21.85c.39-.39-5.27,7.59-7.88,12.92l-3.26,6.66c-1.25,2.55-3.54,3.83-5.23,7.2l-2.98,5.96-3.03,6.11-2.98,5.89c-1.77,3.5-4.02,4.69-5.26,7.28l-3.13,6.48-3.08,6.13-3.07,6.15-3.18,6.23c-2.73,5.33-5.6,8.13-8.03,13.04l-3.03,6.13-3.03,6.12-3.44,6.43c-2.98,5.57,3.3,4.84,4.01,8.96-.11-.63-4.74,17.72,5.31,19.32Z"/>
    <path fill="#d80b0b" d="M278.35,167.56c-3.02,3.39-5.39,4.54-8.55,5.11-1.93,3.04-6.09,3.23-8.09-.2-4.96-.09-9.12-3.89-8.17-9.64-.57-3.86.74-6.48,3.84-8.78,4.66-.72,9.06-.68,13.7-.08,1.74,2.51,3.79,3.06,6.2,3.31,4.17,2.1,5.17,7.09,1.06,10.28Z"/>
  </g>
</svg>